<svg width="1920" height="1080" viewBox="0 0 1920 1080" fill="none" xmlns="http://www.w3.org/2000/svg">
<rect width="1920" height="1080" fill="black"/>
<path d="M534.185 420C536.128 474.399 579.558 518.048 633.685 520C579.558 521.952 536.128 565.601 534.185 620C532.242 565.601 488.812 521.952 434.685 520C488.812 518.048 532.242 474.399 534.185 420Z" fill="black"/>
<path d="M633.81 352.27C647.42 354.13 667.83 360.94 684.83 375.38C701.86 389.83 715.47 411.92 715.47 444.25C715.47 476.58 704.25 496.939 690.16 509.27C677.62 520.26 662.85 524.82 651.81 525.78C675.26 531.67 715.47 559.25 715.47 631.15C715.47 669.19 698.02 693.65 676.22 708.75C654.43 723.83 628.31 729.57 610.89 730.23H373V695.27L497.35 570.48C530.79 561.46 567.77 569.44 594.66 594.46C557.76 554.8 557.92 493.23 595.01 453.39C555.17 490.48 493.6 490.63 453.94 453.74C476.07 477.53 484.87 509.2 480.37 539.33L373.39 646.68V624.02L373 624.37V352.27H633.81ZM964.521 349.02C989.59 350.34 1005.93 351.91 1013.52 353.72C1014.84 354.02 1016.18 354.32 1017.53 354.63C1021.51 355.55 1025.45 356.54 1029.42 357.57C1030.63 357.88 1031.85 358.18 1033.09 358.51C1082.55 371.53 1123.2 404.75 1148.86 448.61C1171.18 490.15 1175.01 544.67 1162.64 589.88C1159.77 599.22 1156.27 608.24 1152.39 617.21C1151.62 619.02 1150.85 620.83 1150.05 622.69C1130.22 665.48 1091.88 694.24 1048.51 710.17C1021.23 719.8 993.41 724.81 964.51 724.81V349.02H964.521ZM930.17 349.02V724.8C907.62 724.8 892.79 724.12 885.66 722.76C884.41 722.53 883.14 722.3 881.87 722.07C863.29 718.54 844.53 712.96 827.71 704.19C826.72 703.68 825.73 703.16 824.69 702.63C810.801 695.39 798.35 688.03 787.08 676.98C784.49 674.391 781.55 671.8 778.23 669.19C750.66 645.42 732.88 604.36 728.65 568.64C728.46 567.16 728.27 565.67 728.09 564.15C727.58 559.36 727.22 554.59 726.95 549.77C726.83 548.11 726.73 546.46 726.61 544.74C724.85 495.06 741.03 447.33 774.42 410.59C814.85 367.6 872.49 349 930.19 349L930.17 349.02ZM1290.52 352.78C1292.93 352.78 1295.34 352.78 1297.75 352.8H1305.42C1310.75 352.8 1316.08 352.8 1321.39 352.82L1323.76 352.79L1481.99 511.02L1484.26 513.29L1515.97 544.99C1534.33 563.35 1544.49 586.8 1546.45 610.8C1547.96 628.99 1544.75 647.49 1536.82 664.31C1531.78 675.04 1524.83 685.1 1515.97 693.96L1511.78 698.14C1496.07 711.74 1476.51 718.89 1455.54 720.82C1455.28 720.82 1455.04 720.84 1454.78 720.84C1448.05 721.04 1441.34 721.06 1434.63 720.98C1431.98 720.98 1429.33 720.98 1426.69 721C1423.51 721 1420.33 720.98 1417.17 720.97L1220.27 524.07C1212.7 516.5 1206.54 508.08 1201.77 499.1C1201.7 498.98 1201.65 498.86 1201.58 498.74C1189.09 474.98 1186.36 447.43 1193.42 422.03C1198.07 405.19 1207.02 389.29 1220.27 376.03L1221.89 374.41C1238.03 360.51 1255.57 354.17 1276.27 352.99C1278.75 352.85 1281.27 352.78 1283.84 352.78H1290.52ZM1367.5 720.81V720.82H1312.86L1203.43 720.68V556.76L1367.5 720.81ZM1534.15 352.91V516.83L1370.07 352.77H1424.71L1534.15 352.91Z" fill="url(#paint0_linear_171_114)"/>
<defs>
<linearGradient id="paint0_linear_171_114" x1="373" y1="367.939" x2="1294.53" y2="718.357" gradientUnits="userSpaceOnUse">
<stop stop-color="#E9AEFE"/>
<stop offset="1" stop-color="#8752C5"/>
</linearGradient>
</defs>
</svg>
