<svg width="1174" height="382" viewBox="0 0 1174 382" fill="none" xmlns="http://www.w3.org/2000/svg">
<path d="M260.81 3.26953C274.42 5.12953 294.83 11.9399 311.83 26.3799C328.86 40.8299 342.47 62.92 342.47 95.25C342.47 127.58 331.25 147.939 317.16 160.27C304.62 171.26 289.85 175.82 278.81 176.78C302.26 182.67 342.47 210.25 342.47 282.15C342.47 320.19 325.02 344.65 303.22 359.75C281.43 374.83 255.31 380.57 237.89 381.23H0V346.27L124.35 221.48C157.79 212.46 194.77 220.44 221.66 245.46C184.76 205.8 184.92 144.23 222.01 104.39C182.17 141.48 120.6 141.63 80.9404 104.74C103.07 128.53 111.87 160.2 107.37 190.33L0.389648 297.68V275.02L0 275.37V3.26953H260.81ZM591.521 0.0195312C616.59 1.33953 632.931 2.90974 640.521 4.71973C641.84 5.0197 643.18 5.31991 644.53 5.62988C648.51 6.54987 652.45 7.54033 656.42 8.57031C657.63 8.88029 658.85 9.17979 660.09 9.50977C709.55 22.5298 750.2 55.7504 775.86 99.6104C798.18 141.15 802.01 195.67 789.64 240.88C786.77 250.22 783.27 259.24 779.39 268.21C778.62 270.02 777.85 271.83 777.05 273.69C757.22 316.48 718.88 345.24 675.51 361.17C648.23 370.8 620.41 375.81 591.51 375.81V0.0195312H591.521ZM557.17 0.0195312V375.8C534.62 375.8 519.79 375.12 512.66 373.76C511.41 373.53 510.14 373.3 508.87 373.07C490.29 369.54 471.53 363.96 454.71 355.19C453.72 354.68 452.73 354.16 451.69 353.63C437.801 346.39 425.35 339.03 414.08 327.98C411.49 325.391 408.55 322.8 405.23 320.19C377.66 296.42 359.88 255.36 355.65 219.64C355.46 218.16 355.27 216.67 355.09 215.15C354.58 210.36 354.22 205.59 353.95 200.77C353.83 199.11 353.73 197.46 353.61 195.74C351.85 146.06 368.03 98.3298 401.42 61.5898C441.85 18.5999 499.49 0 557.19 0L557.17 0.0195312ZM917.521 3.78027C919.93 3.78027 922.34 3.77981 924.75 3.7998H932.42C937.75 3.7998 943.08 3.80031 948.39 3.82031L950.76 3.79004L1108.99 162.02L1111.26 164.29L1142.97 195.99C1161.33 214.35 1171.49 237.8 1173.45 261.8C1174.96 279.99 1171.75 298.49 1163.82 315.31C1158.78 326.04 1151.83 336.1 1142.97 344.96L1138.78 349.14C1123.07 362.74 1103.51 369.89 1082.54 371.82C1082.28 371.82 1082.04 371.84 1081.78 371.84C1075.05 372.04 1068.34 372.06 1061.63 371.98C1058.98 371.98 1056.33 371.98 1053.69 372C1050.51 372 1047.33 371.98 1044.17 371.97L847.271 175.07C839.701 167.5 833.541 159.08 828.771 150.1C828.701 149.98 828.65 149.86 828.58 149.74C816.09 125.98 813.36 98.4302 820.42 73.0303C825.07 56.1903 834.021 40.2903 847.271 27.0303L848.89 25.4102C865.03 11.5102 882.57 5.17023 903.271 3.99023C905.75 3.85026 908.27 3.78028 910.84 3.78027H917.521ZM994.5 371.81V371.82H939.86L830.43 371.68V207.76L994.5 371.81ZM1161.15 3.91016V167.83L997.07 3.76953H1051.71L1161.15 3.91016Z" fill="url(#paint0_linear_171_157)"/>
<defs>
<linearGradient id="paint0_linear_171_157" x1="-5.24972e-07" y1="18.9392" x2="921.532" y2="369.357" gradientUnits="userSpaceOnUse">
<stop stop-color="#E9AEFE"/>
<stop offset="1" stop-color="#8752C5"/>
</linearGradient>
</defs>
</svg>
