<svg xmlns="http://www.w3.org/2000/svg" viewBox="0 0 342 35" fill="white">
  <path d="M0 .1a9.7 9.7 0 0 0 7 7h11l.5.5v27h6.8V7.6l.5-.5h11a9.7 9.7 0 0 0 7-7H0z"/>
  <path d="M188.4 0c-16 0-25.6 10.4-25.6 17.5 0 7 9.6 17.5 25.6 17.5s25.6-10.5 25.6-17.5S204.4 0 188.4 0zm0 28.8c-9.8 0-18.8-7-18.8-11.3s9-11.3 18.8-11.3 18.8 7 18.8 11.3-9 11.3-18.8 11.3z"/>
  <path d="M84.3 7.8V0H57.5a9.7 9.7 0 0 0-7 7l16.7.1 12.3 12.3-12.3 12.3-16.7.1a9.7 9.7 0 0 0 7 7h26.8v-7.8H70.6l7.7-7.8h-.1l7.7-7.7 7.7 7.7-.1.1 7.7 7.7H87.5v7.8h26.8a9.7 9.7 0 0 0 7-7l-16.7-.1-12.3-12.3 12.3-12.3 16.7-.1a9.7 9.7 0 0 0-7-7H87.5v7.8h13.6L93.4 15.6h.1l-7.7 7.7-7.7-7.7.1-.1-7.7-7.7h13.8z"/>
  <path d="M241 .1a9.7 9.7 0 0 0-7 7H255v27.8h6.8V7.1h21a9.7 9.7 0 0 0-7-7H241z"/>
  <path d="M316.2 0c-16 0-25.6 10.4-25.6 17.5 0 9.6 13 17.5 25.6 17.5l4.4-.3c11.6-.9 21.2-8.8 21.2-17.2C341.8 10.4 332.2 0 316.2 0zm12.7 25.2a19.4 19.4 0 0 1-12.7 3.6c-9.8 0-18.8-7-18.8-11.3s9-11.3 18.8-11.3a19.4 19.4 0 0 1 12.7 3.6L336 15.5l-7.1 9.7z"/>
</svg>
